<svg xmlns="http://www.w3.org/2000/svg" xmlns:xlink="http://www.w3.org/1999/xlink" width="90" zoomAndPan="magnify" viewBox="0 0 67.5 67.499996" height="90" preserveAspectRatio="xMidYMid meet" version="1.0"><defs><clipPath id="19b9655df1"><path d="M 0 0 L 67.003906 0 L 67.003906 67.003906 L 0 67.003906 Z M 0 0 " clip-rule="nonzero"/></clipPath><clipPath id="7c28df8ebd"><path d="M 0 13.375 L 34.992188 13.375 L 34.992188 51.34375 L 0 51.34375 Z M 0 13.375 " clip-rule="nonzero"/></clipPath><clipPath id="4899343c04"><path d="M 31.210938 14.203125 L 66.945312 14.203125 L 66.945312 51.425781 L 31.210938 51.425781 Z M 31.210938 14.203125 " clip-rule="nonzero"/></clipPath></defs><g clip-path="url(#19b9655df1)"><path fill="#ffffff" d="M 0 0 L 67.003906 0 L 67.003906 67.003906 L 0 67.003906 Z M 0 0 " fill-opacity="1" fill-rule="nonzero"/><path fill="#363636" d="M 0 0 L 67.003906 0 L 67.003906 67.003906 L 0 67.003906 Z M 0 0 " fill-opacity="1" fill-rule="nonzero"/></g><g clip-path="url(#7c28df8ebd)"><path fill="#ffffff" d="M 25.304688 51.148438 L 35.015625 51.148438 L 25.789062 37.660156 C 27.398438 37.066406 28.8125 36.246094 30.023438 35.183594 C 31.230469 34.132812 32.175781 32.839844 32.847656 31.300781 C 33.53125 29.761719 33.875 27.980469 33.882812 25.949219 L 33.882812 25.839844 C 33.882812 24.050781 33.605469 22.433594 33.054688 20.976562 C 32.507812 19.519531 31.699219 18.269531 30.644531 17.207031 C 29.40625 15.957031 27.859375 15.007812 26.011719 14.355469 C 24.171875 13.707031 22.039062 13.375 19.636719 13.375 L 0.0078125 13.375 L 5.03125 20.875 L 18.9375 20.875 C 20.292969 20.875 21.453125 21.082031 22.425781 21.488281 C 23.398438 21.894531 24.152344 22.488281 24.671875 23.289062 C 25.195312 24.085938 25.457031 25.085938 25.464844 26.273438 L 25.464844 26.378906 C 25.464844 27.449219 25.214844 28.386719 24.710938 29.179688 C 24.214844 29.976562 23.496094 30.597656 22.550781 31.046875 C 21.597656 31.488281 20.445312 31.714844 19.097656 31.722656 L 12.292969 31.722656 Z M 25.304688 51.148438 " fill-opacity="1" fill-rule="nonzero"/></g><g clip-path="url(#4899343c04)"><path fill="#ffffff" d="M 40.292969 26.214844 L 31.425781 49.953125 C 31.210938 50.53125 31.640625 51.148438 32.257812 51.148438 L 39.796875 51.148438 C 40.171875 51.148438 40.507812 50.914062 40.632812 50.558594 L 42.738281 44.597656 L 45.285156 36.960938 C 45.347656 36.78125 45.347656 36.589844 45.289062 36.40625 L 41.964844 26.25 C 41.703125 25.453125 40.585938 25.429688 40.292969 26.214844 Z M 52.816406 14.203125 L 46.085938 14.203125 C 45.476562 14.203125 45.050781 14.800781 45.25 15.375 L 49.027344 26.269531 L 49.035156 26.253906 L 55.234375 44.597656 L 57.382812 50.5625 C 57.511719 50.914062 57.84375 51.148438 58.214844 51.148438 L 65.945312 51.148438 C 66.5625 51.148438 66.988281 50.53125 66.773438 49.953125 L 53.644531 14.777344 C 53.515625 14.433594 53.183594 14.203125 52.816406 14.203125 " fill-opacity="1" fill-rule="nonzero"/></g></svg>